<?xml version="1.0" encoding="UTF-8" standalone="no"?>
<svg
   xmlns:dc="http://purl.org/dc/elements/1.1/"
   xmlns:cc="http://creativecommons.org/ns#"
   xmlns:rdf="http://www.w3.org/1999/02/22-rdf-syntax-ns#"
   xmlns:svg="http://www.w3.org/2000/svg"
   xmlns="http://www.w3.org/2000/svg"
   xmlns:sodipodi="http://sodipodi.sourceforge.net/DTD/sodipodi-0.dtd"
   xmlns:inkscape="http://www.inkscape.org/namespaces/inkscape"
   width="79.374992mm"
   height="79.374992mm"
   viewBox="0 0 79.37499 79.37499"
   version="1.1"
   id="svg8"
   inkscape:version="1.0.2 (e86c870879, 2021-01-15)"
   sodipodi:docname="logo.svg">
  <defs
     id="defs2" />
  <sodipodi:namedview
     id="base"
     pagecolor="#ffffff"
     bordercolor="#666666"
     borderopacity="1.0"
     inkscape:pageopacity="0.0"
     inkscape:pageshadow="2"
     inkscape:zoom="0.98994949"
     inkscape:cx="47.866733"
     inkscape:cy="69.816209"
     inkscape:document-units="mm"
     inkscape:current-layer="layer1"
     inkscape:document-rotation="0"
     showgrid="false"
     inkscape:window-width="1513"
     inkscape:window-height="1053"
     inkscape:window-x="0"
     inkscape:window-y="27"
     inkscape:window-maximized="0" />
  <metadata
     id="metadata5">
    <rdf:RDF>
      <cc:Work
         rdf:about="">
        <dc:format>image/svg+xml</dc:format>
        <dc:type
           rdf:resource="http://purl.org/dc/dcmitype/StillImage" />
        <dc:title></dc:title>
      </cc:Work>
    </rdf:RDF>
  </metadata>
  <g
     inkscape:label="Layer 1"
     inkscape:groupmode="layer"
     id="layer1"
     transform="translate(-83.017677,-95.13078)">
    <path
       id="path859"
       style="fill:#000000;stroke-width:1.53743;stroke-linecap:round;stroke-linejoin:round"
       d="M 162.39267,134.81828 A 39.6875,39.6875 0 0 1 122.95003,174.50502 39.6875,39.6875 0 0 1 83.020698,135.30799 39.6875,39.6875 0 0 1 121.97063,95.137578 39.6875,39.6875 0 0 1 162.38059,133.83894" />
    <g
       aria-label="dm"
       id="text835"
       style="font-size:50.8px;line-height:1.25;font-family:sans-serif;word-spacing:0px;fill:#00ff00;stroke-width:0.264583"
       transform="matrix(0.63907905,0,0,0.63907905,42.122755,42.188211)">
      <path
         d="m 115.0792,102.78431 -12.8524,0.762 v 2.5908 h 1.6256 c 3.1496,0 3.2512,0.2032 3.2512,4.7244 v 7.9756 c -1.9304,-2.3368 -4.2164,-3.4036 -7.366,-3.4036 -6.604,0 -11.6332,5.7404 -11.6332,13.1572 0,7.366 4.5212,12.3952 11.1252,12.3952 3.6576,0 6.2484,-1.3716 8.3312,-4.4196 v 3.6576 l 11.8872,-0.5588 v -2.7432 h -1.3716 c -2.5908,0.1016 -2.9972,-0.254 -2.9972,-2.8956 z m -13.0556,16.1036 c 3.1496,0 5.1816,3.6068 5.1816,9.2964 0,5.5372 -2.1336,9.3472 -5.2832,9.3472 -3.2512,0 -5.0292,-3.2004 -5.0292,-9.0424 0,-6.096 1.8796,-9.6012 5.1308,-9.6012 z"
         style="font-style:normal;font-variant:normal;font-weight:bold;font-stretch:normal;font-size:50.8px;font-family:C059;-inkscape-font-specification:'C059 Bold';fill:#00ff00;stroke-width:0.264583"
         id="path867" />
      <path
         d="m 132.70679,116.19551 -11.5824,0.3556 v 2.5908 h 0.8128 c 3.1496,0.0508 3.302,0.254 3.2512,4.7752 v 8.9916 2.3368 0.4064 c -0.0508,0.7112 -0.1016,1.016 -0.3048,1.3208 -0.3556,0.4572 -1.3208,0.6604 -3.5052,0.6604 h -0.254 v 2.5908 l 11.71588,-0.13785 c 0.32372,-7.17735 0.3144,-5.54657 0.32372,-7.17735 v -6.8072 c 0,-3.6576 1.778,-5.9436 4.6228,-5.9436 1.9812,0 2.794,1.3208 2.794,4.7244 v 8.0264 c 0.31702,5.8371 0.0998,2.8611 0.0998,7.22759 l 7.8551,-0.0177 c 0.28605,-4.49028 -0.0615,-3.24087 0.0207,-7.20994 v -6.8072 c 0,-3.6068 1.8288,-5.9436 4.6228,-5.9436 1.9304,0 2.794,1.3716 2.794,4.5212 v 8.2296 1.4224 1.3716 c 0,0.6604 -0.1016,0.9144 -0.3048,1.27 -0.031,3.17536 -0.031,-1.16534 -0.031,3.17536 l 12.32459,0.0758 v -2.5908 h -0.2032 c -3.3528,-0.0508 -3.81,-0.3048 -3.81,-2.1844 v -2.54 -10.1092 c 0,-4.1656 -3.4544,-7.366 -7.9248,-7.366 -3.302,0 -5.588,1.3208 -8.0264,4.572 -1.1176,-2.8956 -3.7592,-4.572 -7.1628,-4.572 -3.4036,0 -6.096,1.5748 -8.128,4.7752 z"
         style="font-style:normal;font-variant:normal;font-weight:bold;font-stretch:normal;font-size:50.8px;font-family:C059;-inkscape-font-specification:'C059 Bold';fill:#00ff00;stroke-width:0.264583"
         id="path869"
         sodipodi:nodetypes="cccccccccsccccsssccccsssccscccccscsscscc" />
    </g>
    <g
       aria-label="dm"
       id="g876"
       style="font-size:50.8px;line-height:1.25;font-family:sans-serif;word-spacing:0px;fill:#00ffff;stroke-width:0.264583"
       transform="matrix(-0.63907905,0,0,-0.63907905,205.88367,225.55251)">
      <path
         d="m 115.0792,102.78431 -12.8524,0.762 v 2.5908 h 1.6256 c 3.1496,0 3.2512,0.2032 3.2512,4.7244 v 7.9756 c -1.9304,-2.3368 -4.2164,-3.4036 -7.366,-3.4036 -6.604,0 -11.6332,5.7404 -11.6332,13.1572 0,7.366 4.5212,12.3952 11.1252,12.3952 3.6576,0 6.2484,-1.3716 8.3312,-4.4196 v 3.6576 l 11.8872,-0.5588 v -2.7432 h -1.3716 c -2.5908,0.1016 -2.9972,-0.254 -2.9972,-2.8956 z m -13.0556,16.1036 c 3.1496,0 5.1816,3.6068 5.1816,9.2964 0,5.5372 -2.1336,9.3472 -5.2832,9.3472 -3.2512,0 -5.0292,-3.2004 -5.0292,-9.0424 0,-6.096 1.8796,-9.6012 5.1308,-9.6012 z"
         style="font-style:normal;font-variant:normal;font-weight:bold;font-stretch:normal;font-size:50.8px;font-family:C059;-inkscape-font-specification:'C059 Bold';fill:#00ffff;stroke-width:0.264583"
         id="path872" />
      <path
         d="m 132.70679,116.19551 -11.5824,0.3556 v 2.5908 h 0.8128 c 3.1496,0.0508 3.302,0.254 3.2512,4.7752 v 8.9916 2.3368 0.4064 c -0.0508,0.7112 -0.1016,1.016 -0.3048,1.3208 -0.3556,0.4572 -1.3208,0.6604 -3.5052,0.6604 h -0.254 v 2.5908 l 11.71588,-0.13785 c 0.32372,-7.17735 0.3144,-5.54657 0.32372,-7.17735 v -6.8072 c 0,-3.6576 1.778,-5.9436 4.6228,-5.9436 1.9812,0 2.794,1.3208 2.794,4.7244 v 8.0264 c 0.31702,5.8371 0.0998,2.8611 0.0998,7.22759 l 7.8551,-0.0177 c 0.28605,-4.49028 -0.0615,-3.24087 0.0207,-7.20994 v -6.8072 c 0,-3.6068 1.8288,-5.9436 4.6228,-5.9436 1.9304,0 2.794,1.3716 2.794,4.5212 v 8.2296 1.4224 1.3716 c 0,0.6604 -0.1016,0.9144 -0.3048,1.27 -0.031,3.17536 -0.031,-1.16534 -0.031,3.17536 l 12.32459,0.0758 v -2.5908 h -0.2032 c -3.3528,-0.0508 -3.81,-0.3048 -3.81,-2.1844 v -2.54 -10.1092 c 0,-4.1656 -3.4544,-7.366 -7.9248,-7.366 -3.302,0 -5.588,1.3208 -8.0264,4.572 -1.1176,-2.8956 -3.7592,-4.572 -7.1628,-4.572 -3.4036,0 -6.096,1.5748 -8.128,4.7752 z"
         style="font-style:normal;font-variant:normal;font-weight:bold;font-stretch:normal;font-size:50.8px;font-family:C059;-inkscape-font-specification:'C059 Bold';fill:#00ffff;stroke-width:0.264583"
         id="path874"
         sodipodi:nodetypes="cccccccccsccccsssccccsssccscccccscsscscc" />
    </g>
  </g>
</svg>
